# xmcd
#
# Track frame offsets:
#	150
#	3568
#	16778
#	39839
#	59217
#	96827
#	134319
#	148748
#	225767
#	254347
#	285654
#	332392
#
# Disc length: 4599 seconds
#
# Revision: 1
# Processed by: cddbd v1.5.2PL0 Copyright (c) Steve Scherf et al.
# Submitted via: audiograbber 1.83.01
#
DISCID=9b11f50c
DTITLE=Grateful Dead - 71-03-24 Winterland Arena, San Francisco CA
DYEAR=1900
DGENRE=
TTITLE0=Stage Banter
TTITLE1=Greatest Story Ever Told
TTITLE2=Johnny B Goode
TTITLE3=Next Time You See Me
TTITLE4=Loser
TTITLE5=Truckin'
TTITLE6=Drums
TTITLE7=The Other One
TTITLE8=Bertha
TTITLE9=Sugar Magnolia
TTITLE10=I'm A King Bee
TTITLE11=BIODTL
EXTD=
EXTT0=
EXTT1=
EXTT2=
EXTT3=
EXTT4=
EXTT5=
EXTT6=
EXTT7=
EXTT8=
EXTT9=
EXTT10=
EXTT11=
PLAYORDER=
